<svg width="512" height="512" viewBox="0 0 512 512" fill="none" xmlns="http://www.w3.org/2000/svg">
  <!-- Background Circle -->
  <circle cx="256" cy="256" r="256" fill="#10b981"/>

  <!-- Cat Head -->
  <ellipse cx="256" cy="220" rx="100" ry="90" fill="#1f2937"/>

  <!-- Left Ear -->
  <path d="M 180 160 L 160 100 L 200 140 Z" fill="#1f2937"/>
  <!-- Right Ear -->
  <path d="M 332 160 L 352 100 L 312 140 Z" fill="#1f2937"/>

  <!-- Inner Left Ear -->
  <path d="M 185 155 L 175 120 L 195 145 Z" fill="#ec4899"/>
  <!-- Inner Right Ear -->
  <path d="M 327 155 L 337 120 L 317 145 Z" fill="#ec4899"/>

  <!-- Left Eye -->
  <circle cx="220" cy="210" r="15" fill="#fbbf24"/>
  <circle cx="223" cy="207" r="8" fill="#000000"/>

  <!-- Right Eye -->
  <circle cx="292" cy="210" r="15" fill="#fbbf24"/>
  <circle cx="295" cy="207" r="8" fill="#000000"/>

  <!-- Nose -->
  <path d="M 256 230 L 250 240 L 262 240 Z" fill="#ec4899"/>

  <!-- Whiskers Left -->
  <line x1="180" y1="225" x2="130" y2="220" stroke="#374151" stroke-width="2"/>
  <line x1="180" y1="235" x2="130" y2="240" stroke="#374151" stroke-width="2"/>

  <!-- Whiskers Right -->
  <line x1="332" y1="225" x2="382" y2="220" stroke="#374151" stroke-width="2"/>
  <line x1="332" y1="235" x2="382" y2="240" stroke="#374151" stroke-width="2"/>

  <!-- Food Bowl -->
  <ellipse cx="256" cy="380" rx="80" ry="20" fill="#3b82f6"/>
  <path d="M 176 380 L 190 330 L 322 330 L 336 380 Z" fill="#60a5fa"/>

  <!-- Food in Bowl -->
  <ellipse cx="256" cy="335" rx="50" ry="12" fill="#f59e0b"/>
  <ellipse cx="240" cy="345" rx="15" ry="8" fill="#fbbf24"/>
  <ellipse cx="272" cy="345" rx="15" ry="8" fill="#fbbf24"/>

  <!-- Paw reaching for bowl -->
  <ellipse cx="280" cy="290" rx="20" ry="25" fill="#374151" transform="rotate(-20 280 290)"/>
  <circle cx="275" cy="280" r="8" fill="#374151"/>
  <circle cx="285" cy="278" r="6" fill="#374151"/>
</svg>
